<svg width="260" height="260" viewBox="0 0 260 260" fill="none" xmlns="http://www.w3.org/2000/svg">
<g clip-path="url(#clip0_811_78)">
<rect width="260" height="260" rx="8" fill="#5817BB"/>
<path d="M71.9187 94.1034C67.9582 94.1034 64.9272 95.1137 62.8257 97.1344C60.7243 99.0742 59.6735 101.903 59.6735 105.621V107.925H80.1629V122.231H59.6735V174H42.5788V122.231H32.3947V107.925H42.5788V105.257C42.5788 96.6898 45.044 90.1833 49.9744 85.7379C54.9856 81.2116 61.4517 78.9485 69.3726 78.9485C75.9196 78.9485 82.1836 80.565 88.1647 83.7981L82.5877 96.8919C78.3848 95.0329 74.8284 94.1034 71.9187 94.1034Z" fill="white"/>
<path d="M200.604 106.106C208.525 106.106 214.951 108.571 219.881 113.502C224.973 118.432 227.519 125.302 227.519 134.112V174H210.425V137.265C210.425 132.334 209.212 128.535 206.787 125.868C204.443 123.201 201.251 121.867 197.209 121.867C192.845 121.867 189.329 123.322 186.662 126.232C183.994 129.061 182.661 132.9 182.661 137.749V174H165.566V137.386C165.566 132.536 164.354 128.737 161.929 125.989C159.585 123.241 156.352 121.867 152.23 121.867C148.027 121.867 144.551 123.322 141.803 126.232C139.136 129.142 137.802 133.021 137.802 137.871V174H120.708V107.925H137.439V117.381C139.298 113.906 142.046 111.158 145.683 109.137C149.32 107.036 153.28 106.025 157.564 106.106C161.767 106.106 165.606 107.116 169.082 109.137C172.638 111.158 175.265 114.027 176.963 117.745C179.387 114.108 182.701 111.279 186.904 109.258C191.107 107.157 195.674 106.106 200.604 106.106Z" fill="white"/>
<circle cx="102.752" cy="165.711" r="9.55827" fill="#94BD20"/>
</g>
<defs>
<clipPath id="clip0_811_78">
<rect width="260" height="260" rx="8" fill="white"/>
</clipPath>
</defs>
</svg>
