<svg width="152" height="36" viewBox="0 0 152 36" fill="none" xmlns="http://www.w3.org/2000/svg">
<g clip-path="url(#clip0_811_71)">
<path d="M3.25154 9.6287V9.28032C3.25154 7.17069 3.78379 5.5546 4.84828 4.43204C5.91277 3.29013 7.38371 2.71918 9.26108 2.71918C10.7127 2.71918 12.1062 3.06755 13.4416 3.76431L12.3094 6.95779C11.4385 6.53199 10.6449 6.3191 9.92881 6.3191C9.11593 6.3191 8.47723 6.56103 8.01273 7.04489C7.56757 7.50939 7.345 8.17712 7.345 9.04807V9.6287H12.2804V13.0544H7.345V25.4509H3.25154V13.0544H0.812885V9.6287H3.25154ZM18.6383 7.13198C18.1544 7.59649 17.5544 7.82874 16.8383 7.82874C16.1222 7.82874 15.5126 7.59649 15.0093 7.13198C14.5255 6.64812 14.2836 6.04813 14.2836 5.33202C14.2836 4.61591 14.5255 4.01592 15.0093 3.53206C15.5126 3.0482 16.1222 2.80627 16.8383 2.80627C17.5544 2.80627 18.1544 3.0482 18.6383 3.53206C19.1222 4.01592 19.3641 4.61591 19.3641 5.33202C19.3641 6.04813 19.1222 6.64812 18.6383 7.13198ZM18.8705 25.4509H14.7771V9.6287H18.8705V25.4509ZM29.4342 19.8769L33.3244 9.6287H37.8243L30.9438 25.4219H27.8084L20.957 9.6287H25.4569L29.4342 19.8769ZM54.4408 17.1769C54.4408 17.6608 54.3925 18.2608 54.2957 18.9769H42.4218C43.0024 21.222 44.5411 22.3445 47.0378 22.3445C48.8765 22.3445 50.5796 21.8123 52.1473 20.7478L53.7731 23.6219C51.7603 25.0735 49.4571 25.7993 46.8636 25.7993C44.0959 25.7993 41.9669 24.9961 40.4766 23.3897C39.0057 21.8026 38.2702 19.8478 38.2702 17.5253C38.2702 15.106 39.0347 13.1222 40.5637 11.5738C42.0927 10.0061 44.0766 9.22226 46.5152 9.22226C48.8184 9.22226 50.7151 9.93837 52.2054 11.3706C53.6957 12.8028 54.4408 14.7383 54.4408 17.1769ZM46.5152 12.619C45.4894 12.619 44.6088 12.9189 43.8733 13.5189C43.1572 14.0996 42.6734 14.9028 42.4218 15.9286H50.4635C50.27 14.9028 49.8248 14.0996 49.1281 13.5189C48.4313 12.9189 47.5604 12.619 46.5152 12.619Z" fill="white"/>
<path d="M82.4606 9.19347C84.3573 9.19347 85.896 9.78378 87.0766 10.9644C88.2959 12.145 88.9056 13.7901 88.9056 15.8998V25.4512H84.8121V16.6546C84.8121 15.474 84.5218 14.5643 83.9412 13.9256C83.3799 13.2869 82.6154 12.9676 81.6477 12.9676C80.6025 12.9676 79.7606 13.316 79.1219 14.0127C78.4832 14.6901 78.1639 15.6095 78.1639 16.7707V25.4512H74.0704V16.6836C74.0704 15.5224 73.7801 14.6127 73.1995 13.9547C72.6382 13.2966 71.864 12.9676 70.8769 12.9676C69.8705 12.9676 69.0383 13.316 68.3802 14.0127C67.7415 14.7095 67.4222 15.6385 67.4222 16.7998V25.4512H63.3287V9.62894H67.3351V11.8934C67.7802 11.0612 68.4383 10.4031 69.3092 9.91926C70.1802 9.41604 71.1286 9.17411 72.1543 9.19347C73.1608 9.19347 74.0801 9.4354 74.9123 9.91926C75.7639 10.4031 76.393 11.0902 76.7994 11.9805C77.38 11.1096 78.1736 10.4322 79.18 9.94829C80.1864 9.44508 81.2799 9.19347 82.4606 9.19347ZM97.0621 5.33227C97.0621 6.04838 96.8202 6.64836 96.3363 7.13222C95.8524 7.61609 95.2525 7.85802 94.5363 7.85802C93.8202 7.85802 93.2202 7.61609 92.7364 7.13222C92.2525 6.64836 92.0106 6.04838 92.0106 5.33227C92.0106 4.61615 92.2525 4.02584 92.7364 3.56134C93.2202 3.07748 93.8202 2.83555 94.5363 2.83555C95.2525 2.83555 95.8524 3.07748 96.3363 3.56134C96.8202 4.02584 97.0621 4.61615 97.0621 5.33227ZM96.5686 9.62894V25.4512H92.4751V9.62894H96.5686ZM104.307 25.4512H100.214V9.62894H104.22V11.8353C104.646 11.0418 105.304 10.4031 106.194 9.91926C107.084 9.4354 108.081 9.19347 109.184 9.19347C110.907 9.19347 112.368 9.76442 113.568 10.9063C114.768 12.0482 115.368 13.674 115.368 15.7836V25.4512H111.275V16.8868C111.275 15.6482 110.975 14.6901 110.375 14.0127C109.775 13.316 108.962 12.9676 107.936 12.9676C106.852 12.9676 105.972 13.345 105.294 14.0998C104.636 14.8353 104.307 15.7933 104.307 16.9739V25.4512ZM130.685 11.4579V3.38715H134.778V25.4512H130.772V23.5061C129.494 25.0544 127.859 25.8286 125.865 25.8286C123.601 25.8286 121.733 25.0447 120.262 23.477C118.772 21.8706 118.027 19.8868 118.027 17.5255C118.027 15.1837 118.772 13.2095 120.262 11.6031C121.772 10.016 123.64 9.2225 125.865 9.2225C127.762 9.2225 129.368 9.96765 130.685 11.4579ZM130.888 17.5255C130.888 16.2482 130.481 15.174 129.668 14.303C128.856 13.4127 127.801 12.9676 126.504 12.9676C125.207 12.9676 124.143 13.4127 123.311 14.303C122.498 15.174 122.091 16.2482 122.091 17.5255C122.091 18.8223 122.498 19.9158 123.311 20.8061C124.143 21.6771 125.207 22.1125 126.504 22.1125C127.801 22.1125 128.856 21.6771 129.668 20.8061C130.481 19.9158 130.888 18.8223 130.888 17.5255ZM143.771 25.8576C141.023 25.8576 138.846 24.8415 137.239 22.8093L139.417 20.2255C139.978 20.9029 140.646 21.4448 141.42 21.8513C142.213 22.2383 143.007 22.4319 143.8 22.4319C144.42 22.4319 144.933 22.2867 145.339 21.9964C145.765 21.7061 145.978 21.3384 145.978 20.8932C145.978 20.3319 145.6 19.8771 144.846 19.5287C144.613 19.432 143.984 19.19 142.959 18.8029C142.049 18.4739 141.372 18.1933 140.926 17.961C139.107 17.0901 138.197 15.7256 138.197 13.8676C138.197 12.4934 138.739 11.3515 139.823 10.4418C140.888 9.55153 142.32 9.10637 144.12 9.10637C146.365 9.10637 148.213 9.8612 149.665 11.3708L147.633 14.0127C146.529 12.9676 145.32 12.445 144.004 12.445C143.481 12.445 143.046 12.5805 142.697 12.8515C142.368 13.1031 142.204 13.4127 142.204 13.7805C142.204 14.4385 142.668 14.9224 143.597 15.232C145.668 16.0062 146.936 16.5191 147.4 16.7707C149.181 17.6997 150.071 19.0352 150.071 20.7771C150.071 22.2674 149.491 23.4867 148.329 24.4351C147.207 25.3834 145.688 25.8576 143.771 25.8576Z" fill="white"/>
<circle cx="59.1208" cy="23.4536" r="2.2888" fill="#94BD20"/>
</g>
<defs>
<clipPath id="clip0_811_71">
<rect width="152" height="35.4801" fill="white"/>
</clipPath>
</defs>
</svg>
