<svg width="93" height="94" viewBox="0 0 93 94" fill="none" xmlns="http://www.w3.org/2000/svg">
<g filter="url(#filter0_d_604_511)">
<circle cx="46.5" cy="43.5" r="40.5" fill="#4D993A"/>
<circle cx="46.5" cy="43.5" r="39.0138" stroke="white" stroke-width="2.97248"/>
</g>
<path fill-rule="evenodd" clip-rule="evenodd" d="M62.4628 43.1479C62.377 39.0003 60.6689 35.0491 57.7008 32.1323C54.7326 29.2155 50.7379 27.5626 46.5639 27.5241C42.39 27.4857 38.3652 29.0647 35.3431 31.9263C32.321 34.7878 30.5395 38.7069 30.3763 42.8521C30.3763 43.0856 30.3763 43.319 30.3763 43.5525C30.3747 46.4344 31.1711 49.2611 32.6783 51.7232L29.7812 60.2207L38.6759 57.4037C41.1117 58.7337 43.8529 59.4131 46.6319 59.3754C49.4108 59.3376 52.1323 58.5841 54.5306 57.1885C56.9289 55.7929 58.922 53.8028 60.315 51.4128C61.7081 49.0228 62.4535 46.3145 62.4785 43.5525L62.4628 43.1479ZM46.4117 56.8591C43.7726 56.8647 41.1905 56.0959 38.9891 54.6491L33.8058 56.2988L35.4813 51.3497C33.8147 49.0931 32.9151 46.3673 32.9132 43.5681C32.9154 43.1364 32.9415 42.7051 32.9914 42.2763C33.344 38.9592 34.9274 35.8916 37.4326 33.6719C39.9377 31.4522 43.1851 30.2396 46.5412 30.2707C49.8973 30.3018 53.1213 31.5744 55.5845 33.8401C58.0476 36.1058 59.573 39.2023 59.8633 42.5253C59.8633 42.8677 59.8633 43.2101 59.8633 43.5681C59.8385 47.1043 58.4065 50.4871 55.8802 52.9774C53.3539 55.4678 49.9387 56.8633 46.3804 56.8591H46.4117Z" fill="white"/>
<path fill-rule="evenodd" clip-rule="evenodd" d="M53.0848 46.8649C52.6777 46.677 50.7515 45.7217 50.3914 45.5965C50.0312 45.4712 49.765 45.3929 49.4988 45.7844C49.2326 46.1759 48.4809 47.0685 48.2617 47.3504C48.0425 47.6322 47.8075 47.6479 47.4004 47.4443C46.2481 46.9908 45.1871 46.333 44.2685 45.5025C43.4101 44.7166 42.6715 43.8091 42.0761 42.8091C41.8569 42.4176 42.0761 42.214 42.264 42.0104C42.452 41.8069 42.6399 41.5563 42.8435 41.3371L43 41.1492C43 40.9926 43.1567 40.8673 43.235 40.6794C43.297 40.5752 43.3297 40.4561 43.3297 40.3349C43.3297 40.2136 43.297 40.0945 43.235 39.9903C43.141 39.8024 42.358 37.8763 42.0292 37.0933C41.7003 36.3103 41.3714 36.4513 41.1366 36.4513C40.9017 36.4513 40.6511 36.4513 40.3849 36.4513C40.186 36.4554 39.9901 36.5006 39.8095 36.5841C39.6289 36.6677 39.4676 36.7877 39.3357 36.9367C38.8912 37.3566 38.5391 37.8645 38.3019 38.428C38.0646 38.9915 37.9474 39.5982 37.9577 40.2096C37.964 40.6605 38.0325 41.1084 38.1612 41.5407C38.4721 42.5131 38.9489 43.4243 39.5706 44.2341C41.2041 46.7998 43.5342 48.8475 46.2886 50.1378C50.2818 51.7037 50.2818 51.1713 50.9865 51.1087C51.5346 51.0037 52.0541 50.7833 52.5104 50.462C52.9667 50.1407 53.3494 49.7259 53.6329 49.2452C53.8885 48.665 53.9701 48.023 53.8678 47.3974C53.7425 47.1625 53.4763 47.0685 53.0848 46.8649Z" fill="white"/>
<defs>
<filter id="filter0_d_604_511" x="0.0550461" y="0.770642" width="92.8899" height="92.8899" filterUnits="userSpaceOnUse" color-interpolation-filters="sRGB">
<feFlood flood-opacity="0" result="BackgroundImageFix"/>
<feColorMatrix in="SourceAlpha" type="matrix" values="0 0 0 0 0 0 0 0 0 0 0 0 0 0 0 0 0 0 127 0" result="hardAlpha"/>
<feOffset dy="3.7156"/>
<feGaussianBlur stdDeviation="2.97248"/>
<feComposite in2="hardAlpha" operator="out"/>
<feColorMatrix type="matrix" values="0 0 0 0 0 0 0 0 0 0 0 0 0 0 0 0 0 0 0.25 0"/>
<feBlend mode="normal" in2="BackgroundImageFix" result="effect1_dropShadow_604_511"/>
<feBlend mode="normal" in="SourceGraphic" in2="effect1_dropShadow_604_511" result="shape"/>
</filter>
</defs>
</svg>
