<svg width="29" height="30" viewBox="0 0 29 30" fill="none" xmlns="http://www.w3.org/2000/svg">
<path d="M24.0499 14.1192H26.4547C26.4547 7.95091 21.7978 3.29883 15.6211 3.29883V5.70363C20.5052 5.70363 24.0499 9.24228 24.0499 14.1192Z" fill="#94BD20"/>
<path d="M15.6317 10.5138C18.1604 10.5138 19.2389 11.5923 19.2389 14.121H21.6437C21.6437 10.2432 19.5095 8.10899 15.6317 8.10899V10.5138ZM19.7464 17.0584C19.5153 16.8484 19.2117 16.7365 18.8996 16.7461C18.5876 16.7557 18.2915 16.8863 18.0738 17.1101L15.1965 20.0693C14.5039 19.937 13.1115 19.5029 11.6783 18.0733C10.245 16.6388 9.81094 15.2428 9.68228 14.5551L12.639 11.6765C12.8631 11.459 12.9938 11.1629 13.0035 10.8507C13.0131 10.5385 12.901 10.2349 12.6907 10.004L8.24782 5.11863C8.03745 4.88699 7.74507 4.74649 7.43278 4.72696C7.12048 4.70742 6.81287 4.8104 6.57528 5.01402L3.96608 7.25168C3.75819 7.46032 3.63412 7.73799 3.61738 8.03204C3.59934 8.33264 3.25546 15.4532 8.77687 20.9771C13.5937 25.7927 19.6273 26.145 21.289 26.145C21.5319 26.145 21.681 26.1378 21.7207 26.1354C22.0147 26.1189 22.2922 25.9943 22.4999 25.7855L24.7363 23.175C24.9401 22.9376 25.0433 22.6301 25.024 22.3178C25.0046 22.0055 24.8644 21.713 24.6329 21.5025L19.7464 17.0584Z" fill="#94BD20"/>
</svg>
