<svg width="29" height="30" viewBox="0 0 29 30" fill="none" xmlns="http://www.w3.org/2000/svg">
<path d="M14.4296 2.65332C11.7996 2.65642 9.27829 3.70254 7.41864 5.56219C5.55899 7.42184 4.51288 9.94317 4.50978 12.5731C4.50663 14.7223 5.20865 16.8132 6.50816 18.525C6.50816 18.525 6.7787 18.8812 6.82289 18.9326L14.4296 27.9037L22.0398 18.9281C22.0795 18.8803 22.351 18.525 22.351 18.525L22.3519 18.5223C23.6507 16.8112 24.3524 14.7213 24.3494 12.5731C24.3463 9.94317 23.3001 7.42184 21.4405 5.56219C19.5808 3.70254 17.0595 2.65642 14.4296 2.65332ZM14.4296 16.1803C13.7161 16.1803 13.0187 15.9687 12.4255 15.5724C11.8323 15.176 11.37 14.6127 11.097 13.9535C10.8239 13.2944 10.7525 12.5691 10.8917 11.8694C11.0309 11.1697 11.3744 10.5269 11.8789 10.0224C12.3834 9.51796 13.0261 9.17441 13.7258 9.03523C14.4256 8.89604 15.1509 8.96748 15.81 9.2405C16.4691 9.51352 17.0325 9.97586 17.4288 10.5691C17.8252 11.1623 18.0368 11.8597 18.0368 12.5731C18.0356 13.5294 17.6551 14.4462 16.9789 15.1225C16.3027 15.7987 15.3859 16.1791 14.4296 16.1803Z" fill="#94BD20"/>
</svg>
