<svg width="26" height="26" viewBox="0 0 26 26" fill="none" xmlns="http://www.w3.org/2000/svg">
<path fill-rule="evenodd" clip-rule="evenodd" d="M2.16602 19.4998C2.16602 18.9015 2.65104 18.4165 3.24935 18.4165H22.7493C23.3477 18.4165 23.8327 18.9015 23.8327 19.4998C23.8327 20.0981 23.3477 20.5832 22.7493 20.5832H3.24935C2.65104 20.5832 2.16602 20.0981 2.16602 19.4998Z" fill="white"/>
<path fill-rule="evenodd" clip-rule="evenodd" d="M2.16602 12.9998C2.16602 12.4015 2.65104 11.9165 3.24935 11.9165H22.7493C23.3477 11.9165 23.8327 12.4015 23.8327 12.9998C23.8327 13.5981 23.3477 14.0832 22.7493 14.0832H3.24935C2.65104 14.0832 2.16602 13.5981 2.16602 12.9998Z" fill="white"/>
<path fill-rule="evenodd" clip-rule="evenodd" d="M2.16602 6.49984C2.16602 5.90153 2.65104 5.4165 3.24935 5.4165H22.7493C23.3477 5.4165 23.8327 5.90153 23.8327 6.49984C23.8327 7.09815 23.3477 7.58317 22.7493 7.58317H3.24935C2.65104 7.58317 2.16602 7.09815 2.16602 6.49984Z" fill="white"/>
</svg>
