<svg width="24" height="25" viewBox="0 0 24 25" fill="none" xmlns="http://www.w3.org/2000/svg">
<g clip-path="url(#clip0_604_438)">
<path d="M12 3.05547C15.2063 3.05547 15.5859 3.06953 16.8469 3.12578C18.0188 3.17734 18.6516 3.37422 19.0734 3.53828C19.6313 3.75391 20.0344 4.01641 20.4516 4.43359C20.8734 4.85547 21.1313 5.25391 21.3469 5.81172C21.5109 6.23359 21.7078 6.87109 21.7594 8.03828C21.8156 9.30391 21.8297 9.68359 21.8297 12.8852C21.8297 16.0914 21.8156 16.4711 21.7594 17.732C21.7078 18.9039 21.5109 19.5367 21.3469 19.9586C21.1313 20.5164 20.8687 20.9195 20.4516 21.3367C20.0297 21.7586 19.6313 22.0164 19.0734 22.232C18.6516 22.3961 18.0141 22.593 16.8469 22.6445C15.5813 22.7008 15.2016 22.7148 12 22.7148C8.79375 22.7148 8.41406 22.7008 7.15313 22.6445C5.98125 22.593 5.34844 22.3961 4.92656 22.232C4.36875 22.0164 3.96563 21.7539 3.54844 21.3367C3.12656 20.9148 2.86875 20.5164 2.65313 19.9586C2.48906 19.5367 2.29219 18.8992 2.24063 17.732C2.18438 16.4664 2.17031 16.0867 2.17031 12.8852C2.17031 9.67891 2.18438 9.29922 2.24063 8.03828C2.29219 6.86641 2.48906 6.23359 2.65313 5.81172C2.86875 5.25391 3.13125 4.85078 3.54844 4.43359C3.97031 4.01172 4.36875 3.75391 4.92656 3.53828C5.34844 3.37422 5.98594 3.17734 7.15313 3.12578C8.41406 3.06953 8.79375 3.05547 12 3.05547ZM12 0.894531C8.74219 0.894531 8.33438 0.908594 7.05469 0.964844C5.77969 1.02109 4.90313 1.22734 4.14375 1.52266C3.35156 1.83203 2.68125 2.23984 2.01563 2.91016C1.34531 3.57578 0.9375 4.24609 0.628125 5.03359C0.332812 5.79766 0.126563 6.66953 0.0703125 7.94453C0.0140625 9.22891 0 9.63672 0 12.8945C0 16.1523 0.0140625 16.5602 0.0703125 17.8398C0.126563 19.1148 0.332812 19.9914 0.628125 20.7508C0.9375 21.543 1.34531 22.2133 2.01563 22.8789C2.68125 23.5445 3.35156 23.957 4.13906 24.2617C4.90313 24.557 5.775 24.7633 7.05 24.8195C8.32969 24.8758 8.7375 24.8898 11.9953 24.8898C15.2531 24.8898 15.6609 24.8758 16.9406 24.8195C18.2156 24.7633 19.0922 24.557 19.8516 24.2617C20.6391 23.957 21.3094 23.5445 21.975 22.8789C22.6406 22.2133 23.0531 21.543 23.3578 20.7555C23.6531 19.9914 23.8594 19.1195 23.9156 17.8445C23.9719 16.5648 23.9859 16.157 23.9859 12.8992C23.9859 9.64141 23.9719 9.23359 23.9156 7.95391C23.8594 6.67891 23.6531 5.80234 23.3578 5.04297C23.0625 4.24609 22.6547 3.57578 21.9844 2.91016C21.3188 2.24453 20.6484 1.83203 19.8609 1.52734C19.0969 1.23203 18.225 1.02578 16.95 0.969531C15.6656 0.908594 15.2578 0.894531 12 0.894531Z" fill="white"/>
<path d="M12 6.73047C8.59688 6.73047 5.83594 9.49141 5.83594 12.8945C5.83594 16.2977 8.59688 19.0586 12 19.0586C15.4031 19.0586 18.1641 16.2977 18.1641 12.8945C18.1641 9.49141 15.4031 6.73047 12 6.73047ZM12 16.893C9.79219 16.893 8.00156 15.1023 8.00156 12.8945C8.00156 10.6867 9.79219 8.89609 12 8.89609C14.2078 8.89609 15.9984 10.6867 15.9984 12.8945C15.9984 15.1023 14.2078 16.893 12 16.893Z" fill="white"/>
<path d="M19.8469 6.48692C19.8469 7.28379 19.2 7.92598 18.4078 7.92598C17.6109 7.92598 16.9688 7.2791 16.9688 6.48692C16.9688 5.69004 17.6156 5.04785 18.4078 5.04785C19.2 5.04785 19.8469 5.69473 19.8469 6.48692Z" fill="white"/>
</g>
<defs>
<clipPath id="clip0_604_438">
<rect width="24" height="24" fill="white" transform="translate(0 0.894531)"/>
</clipPath>
</defs>
</svg>
