<svg width="24" height="25" viewBox="0 0 24 25" fill="none" xmlns="http://www.w3.org/2000/svg">
<g clip-path="url(#clip0_604_445)">
<path d="M22.2234 0.894531H1.77187C0.792187 0.894531 0 1.66797 0 2.62422V23.1602C0 24.1164 0.792187 24.8945 1.77187 24.8945H22.2234C23.2031 24.8945 24 24.1164 24 23.1648V2.62422C24 1.66797 23.2031 0.894531 22.2234 0.894531ZM7.12031 21.3461H3.55781V9.88984H7.12031V21.3461ZM5.33906 8.32891C4.19531 8.32891 3.27188 7.40547 3.27188 6.26641C3.27188 5.12734 4.19531 4.20391 5.33906 4.20391C6.47813 4.20391 7.40156 5.12734 7.40156 6.26641C7.40156 7.40078 6.47813 8.32891 5.33906 8.32891ZM20.4516 21.3461H16.8937V15.7773C16.8937 14.4508 16.8703 12.7398 15.0422 12.7398C13.1906 12.7398 12.9094 14.1883 12.9094 15.6836V21.3461H9.35625V9.88984H12.7687V11.4555H12.8156C13.2891 10.5555 14.4516 9.60391 16.1813 9.60391C19.7859 9.60391 20.4516 11.9758 20.4516 15.0602V21.3461Z" fill="white"/>
</g>
<defs>
<clipPath id="clip0_604_445">
<rect width="24" height="24" fill="white" transform="translate(0 0.894531)"/>
</clipPath>
</defs>
</svg>
